<?xml version="1.0" standalone="no"?>
<!DOCTYPE svg PUBLIC "-//W3C//DTD SVG 20010904//EN"
 "http://www.w3.org/TR/2001/REC-SVG-20010904/DTD/svg10.dtd">
<svg version="1.0" xmlns="http://www.w3.org/2000/svg"
 width="677.000000pt" height="135.000000pt" viewBox="0 0 677.000000 135.000000"
 preserveAspectRatio="xMidYMid meet">

<g transform="translate(0.000000,135.000000) scale(0.100000,-0.100000)"
fill="#000000" stroke="none">
<path d="M140 675 l0 -455 455 0 455 0 0 455 0 455 -455 0 -455 0 0 -455z
m867 213 l-2 -203 -202 -3 -203 -2 0 198 c0 109 3 202 7 205 3 4 95 7 204 7
l198 0 -2 -202z m-419 -420 l-3 -203 -202 -2 -203 -2 0 198 c0 109 3 201 7
204 3 4 96 7 205 7 l198 0 -2 -202z"/>
<path d="M3341 993 c-32 -6 -69 -31 -82 -55 -14 -27 -4 -34 26 -18 54 29 51 4
-29 -255 -42 -135 -76 -257 -76 -270 0 -54 53 -69 127 -36 40 19 82 65 70 78
-6 6 -13 3 -56 -22 -58 -33 -55 -5 29 267 67 218 78 270 62 294 -9 15 -41 22
-71 17z"/>
<path d="M1737 973 c-13 -13 -7 -21 24 -32 28 -10 30 -13 24 -43 -19 -85 -124
-467 -133 -485 -6 -11 -25 -23 -42 -26 -18 -4 -30 -13 -30 -22 0 -22 280 -22
365 0 130 34 228 124 265 244 54 173 0 303 -149 356 -45 15 -310 23 -324 8z
m269 -34 c85 -22 132 -108 121 -224 -21 -217 -138 -336 -317 -323 l-45 3 2 40
c3 38 102 420 124 477 15 38 44 45 115 27z"/>
<path d="M3750 965 c0 -8 11 -17 25 -21 19 -5 25 -13 25 -33 0 -28 -116 -475
-131 -502 -4 -9 -22 -19 -39 -22 -18 -4 -30 -13 -30 -22 0 -13 22 -15 153 -15
205 0 287 22 372 101 102 94 145 230 113 356 -16 67 -86 136 -157 157 -76 22
-331 23 -331 1z m314 -43 c66 -38 94 -136 75 -251 -16 -91 -51 -160 -108 -214
-56 -52 -105 -69 -189 -65 l-57 3 2 45 c3 69 119 482 140 498 23 17 95 9 137
-16z"/>
<path d="M5659 962 c-40 -21 -53 -52 -33 -81 34 -47 124 -12 124 48 0 41 -44
56 -91 33z"/>
<path d="M2422 744 c-90 -45 -151 -145 -152 -249 0 -96 35 -139 122 -151 83
-12 180 32 213 96 30 58 5 87 -27 30 -39 -68 -143 -93 -188 -45 -14 15 -23 37
-24 61 l-1 36 135 50 c74 27 139 53 143 57 4 4 1 21 -8 37 -8 16 -15 34 -15
41 0 6 -14 23 -31 37 -41 35 -98 35 -167 0z m102 -23 c19 -21 25 -87 10 -100
-15 -13 -156 -62 -162 -56 -3 3 0 23 7 45 17 59 80 125 122 129 3 1 14 -8 23
-18z"/>
<path d="M2923 756 c-133 -42 -233 -172 -233 -303 0 -51 4 -66 22 -82 52 -49
141 -30 207 45 l38 43 -5 -49 c-4 -45 -2 -50 21 -61 32 -15 67 -6 106 27 45
37 42 73 -3 39 -29 -22 -36 -19 -36 18 0 39 57 258 70 271 18 18 10 46 -16 56
-35 14 -120 11 -171 -4z m85 -79 c-5 -57 -50 -164 -92 -220 -14 -19 -41 -42
-60 -52 -34 -19 -35 -19 -57 0 -18 17 -20 27 -16 73 7 67 44 147 92 195 42 43
66 55 109 56 28 1 28 1 24 -52z"/>
<path d="M4445 755 c-58 -20 -127 -99 -149 -170 -30 -95 -11 -168 58 -219 43
-33 147 -29 207 6 83 49 129 133 129 238 0 127 -111 192 -245 145z m129 -44
c24 -27 30 -79 16 -147 -16 -75 -41 -124 -80 -158 -38 -32 -82 -34 -111 -5
-19 19 -21 30 -17 98 8 133 69 231 142 231 19 0 40 -8 50 -19z"/>
<path d="M4884 759 c-43 -12 -94 -72 -94 -109 0 -47 19 -76 82 -126 65 -51 84
-84 67 -115 -12 -24 -52 -41 -76 -33 -10 4 -37 27 -59 52 -46 51 -74 52 -74 4
0 -32 30 -65 73 -81 76 -29 188 5 219 67 25 52 10 87 -72 160 -60 55 -70 69
-70 97 0 68 80 88 124 33 15 -18 31 -39 37 -46 16 -19 44 -10 47 15 10 71 -96
114 -204 82z"/>
<path d="M5243 751 c-47 -22 -74 -56 -75 -98 -2 -49 11 -69 82 -133 55 -48 70
-67 70 -90 0 -71 -100 -72 -145 0 -27 42 -45 49 -65 25 -33 -40 26 -102 107
-112 119 -13 211 56 189 142 -4 14 -27 44 -53 68 -86 78 -92 85 -99 112 -5 20
-1 32 17 51 39 42 92 29 128 -31 22 -38 41 -44 61 -20 19 23 -5 70 -45 89 -44
21 -121 20 -172 -3z"/>
<path d="M5573 750 c-32 -19 -59 -57 -49 -67 3 -3 17 2 31 11 27 18 45 14 45
-9 0 -8 -20 -68 -45 -135 -53 -142 -57 -185 -19 -202 34 -16 100 7 127 44 26
34 16 46 -18 24 -27 -18 -45 -14 -45 9 0 8 20 68 45 135 46 123 55 176 33 198
-18 18 -69 14 -105 -8z"/>
<path d="M5912 744 c-158 -79 -209 -335 -77 -390 88 -36 219 7 260 86 30 58 5
87 -27 30 -39 -68 -143 -93 -188 -45 -14 15 -23 37 -24 61 l-1 36 135 50 c74
27 139 53 143 57 4 4 1 21 -8 37 -8 16 -15 34 -15 41 0 6 -14 23 -31 37 -41
35 -98 35 -167 0z m102 -23 c19 -21 25 -87 10 -100 -15 -13 -156 -62 -162 -56
-3 3 0 23 7 45 17 59 80 125 122 129 3 1 14 -8 23 -18z"/>
<path d="M6280 763 c-23 -8 -70 -55 -70 -70 0 -17 15 -17 30 2 20 24 40 18 40
-12 0 -14 -20 -89 -45 -165 -36 -109 -43 -143 -35 -158 13 -24 66 -27 97 -5
19 13 20 19 10 45 -9 24 -7 42 12 102 40 126 96 208 143 208 12 0 18 -10 20
-37 3 -33 7 -38 30 -41 50 -6 80 85 40 121 -39 36 -108 13 -164 -55 l-27 -33
6 37 c3 24 1 43 -7 53 -12 15 -51 19 -80 8z"/>
</g>
</svg>
